<svg width="90" height="59" viewBox="0 0 90 59" fill="none" xmlns="http://www.w3.org/2000/svg">
<path d="M41.8387 5.79275L37.8301 2.12014C37.0961 1.4478 36.2246 0.914519 35.2656 0.550742C34.3066 0.186965 33.2788 -0.000177164 32.2408 1.25849e-07H5.4828C4.22512 1.25849e-07 3.01896 0.457729 2.12965 1.27249C1.24033 2.08725 0.740723 3.19231 0.740723 4.34456V53.5829C0.740723 54.7351 1.24033 55.8402 2.12965 56.655C3.01896 57.4697 4.22512 57.9275 5.4828 57.9275H84.5175C85.7751 57.9275 86.9813 57.4697 87.8706 56.655C88.7599 55.8402 89.2596 54.7351 89.2596 53.5829V10.1373C89.2596 8.98506 88.7599 7.88 87.8706 7.06524C86.9813 6.25047 85.7751 5.79275 84.5175 5.79275H41.8387Z" fill="url(#paint0_linear_1251_14)"/>
<path d="M41.8387 6.68384L37.8301 10.3564C37.0961 11.0288 36.2246 11.5621 35.2656 11.9258C34.3066 12.2896 33.2788 12.4768 32.2408 12.4766H0.740723V54.474C0.740723 55.6262 1.24033 56.7313 2.12965 57.5461C3.01896 58.3608 4.22512 58.8186 5.4828 58.8186H84.5175C85.7751 58.8186 86.9813 58.3608 87.8706 57.5461C88.7599 56.7313 89.2596 55.6262 89.2596 54.474V11.0284C89.2596 9.87615 88.7599 8.77109 87.8706 7.95633C86.9813 7.14157 85.7751 6.68384 84.5175 6.68384H41.8387Z" fill="url(#paint1_linear_1251_14)"/>
<path d="M3.88607 57.4319C2.98156 57.4319 2.14663 57.199 1.42871 56.8135C2.26048 58.0116 3.75008 58.8187 5.46738 58.8187H84.5329C86.2502 58.8187 87.7398 58.0144 88.5716 56.8135C87.8333 57.2145 86.9827 57.4286 86.1142 57.4319H3.88607Z" fill="#910A5F"/>
<path opacity="0.4" d="M38.3663 9.89176L43.3949 5.12451H41.0683L37.1348 8.85361C36.4145 9.5363 35.5594 10.0778 34.6184 10.4472C33.6773 10.8165 32.6688 11.0066 31.6502 11.0064H0.740723V12.4768H31.7836C33.0062 12.477 34.2168 12.2488 35.3463 11.8052C36.4758 11.3616 37.502 10.7114 38.3663 9.89176Z" fill="white"/>
<defs>
<linearGradient id="paint0_linear_1251_14" x1="3.4926" y1="3.00778" x2="87.7431" y2="60.1629" gradientUnits="userSpaceOnUse">
<stop stop-color="#8465B3"/>
<stop offset="0.288919" stop-color="#C867D9"/>
<stop offset="0.628137" stop-color="#FA75C0"/>
<stop offset="1" stop-color="#F068EF"/>
</linearGradient>
<linearGradient id="paint1_linear_1251_14" x1="0.740724" y1="14.5932" x2="86.4409" y2="60.854" gradientUnits="userSpaceOnUse">
<stop stop-color="#EF67EF"/>
<stop offset="0.341096" stop-color="#FA75BE"/>
<stop offset="0.71" stop-color="#B174FD"/>
<stop offset="1" stop-color="#7E63AA"/>
</linearGradient>
</defs>
</svg>
